<svg width="32" height="32" viewBox="0 0 32 32" fill="none" xmlns="http://www.w3.org/2000/svg">
  <defs>
    <linearGradient id="g" x1="2" y1="3" x2="30" y2="29" gradientUnits="userSpaceOnUse">
      <stop stop-color="#00E5FF"/>
      <stop offset="0.55" stop-color="#3B82F6"/>
      <stop offset="1" stop-color="#00FFB2"/>
    </linearGradient>
  </defs>
  <rect width="32" height="32" rx="8" fill="#101010"/>
  <path d="M8 6H16L20 10V26H8L4 22V10L8 6Z" stroke="url(#g)" stroke-width="2"/>
  <path d="M12 12.5C12 11.1 13.1 10 14.5 10H17.5C18.9 10 20 11.1 20 12.5C20 13.4 19.5 14.2 18.8 14.6C19.9 15.1 20.7 16.2 20.7 17.5C20.7 19.2 19.3 20.6 17.6 20.6H14.4C12.7 20.6 11.3 19.2 11.3 17.5C11.3 16.2 12.1 15.1 13.2 14.6C12.5 14.2 12 13.4 12 12.5ZM14.4 12.8C14.4 13.3 14.8 13.7 15.3 13.7H16.7C17.2 13.7 17.6 13.3 17.6 12.8C17.6 12.3 17.2 11.9 16.7 11.9H15.3C14.8 11.9 14.4 12.3 14.4 12.8ZM13.9 17.3C13.9 18 14.5 18.6 15.2 18.6H16.8C17.5 18.6 18.1 18 18.1 17.3C18.1 16.6 17.5 16 16.8 16H15.2C14.5 16 13.9 16.6 13.9 17.3Z" fill="white"/>
  <path d="M23 10H28" stroke="url(#g)" stroke-width="2" stroke-linecap="round"/>
  <path d="M23 16H28" stroke="url(#g)" stroke-width="2" stroke-linecap="round"/>
  <path d="M23 22H28" stroke="url(#g)" stroke-width="2" stroke-linecap="round"/>
</svg>
